<svg width="32" height="88" viewBox="0 0 32 88" fill="none" xmlns="http://www.w3.org/2000/svg">
<g clip-path="url(#clip0_2_279)">
<path d="M22.1988 27.343L18.6988 23.843C19.5805 22.7632 20.0136 21.3859 19.9087 19.9958C19.8037 18.6057 19.1688 17.309 18.135 16.3737C17.1012 15.4385 15.7476 14.9362 14.3539 14.9706C12.9603 15.005 11.6331 15.5735 10.6467 16.5586C9.66035 17.5437 9.09013 18.8702 9.05393 20.2638C9.01773 21.6574 9.51831 23.0116 10.4522 24.0466C11.3861 25.0816 12.682 25.7183 14.072 25.825C15.4619 25.9317 16.8398 25.5003 17.9208 24.62L21.4208 28.12C21.4718 28.1711 21.5325 28.2116 21.5992 28.2393C21.666 28.2669 21.7375 28.2811 21.8098 28.2811C21.882 28.2811 21.9535 28.2669 22.0203 28.2393C22.087 28.2116 22.1477 28.1711 22.1988 28.12C22.2498 28.0689 22.2904 28.0083 22.318 27.9415C22.3457 27.8748 22.3599 27.8032 22.3599 27.731C22.3599 27.6588 22.3457 27.5872 22.318 27.5205C22.2904 27.4537 22.2498 27.3931 22.1988 27.342V27.343ZM10.1778 20.418C10.178 19.5638 10.4314 18.7289 10.9061 18.0188C11.3808 17.3086 12.0554 16.7552 12.8446 16.4285C13.6339 16.1017 14.5022 16.0163 15.34 16.1831C16.1777 16.3499 16.9472 16.7613 17.5511 17.3654C18.155 17.9694 18.5663 18.739 18.7328 19.5768C18.8994 20.4146 18.8138 21.2829 18.4869 22.072C18.16 22.8612 17.6064 23.5357 16.8962 24.0102C16.1859 24.4847 15.3509 24.738 14.4968 24.738C13.3514 24.7369 12.2534 24.2814 11.4436 23.4715C10.6338 22.6615 10.1786 21.5633 10.1778 20.418Z" fill="white"/>
<path d="M22.1467 27.3741L18.6467 23.8741C19.5284 22.7943 19.9615 21.417 19.8566 20.0269C19.7517 18.6367 19.1167 17.3401 18.0829 16.4048C17.0491 15.4696 15.6955 14.9672 14.3018 15.0017C12.9082 15.0361 11.581 15.6046 10.5946 16.5897C9.60825 17.5748 9.03804 18.9012 9.00183 20.2948C8.96563 21.6884 9.46622 23.0427 10.4001 24.0777C11.334 25.1127 12.6299 25.7493 14.0199 25.8561C15.4099 25.9628 16.7877 25.5314 17.8687 24.6511L21.3687 28.1511C21.4718 28.2543 21.6118 28.3122 21.7577 28.3122C21.9036 28.3122 22.0435 28.2543 22.1467 28.1511C22.2498 28.0479 22.3078 27.908 22.3078 27.7621C22.3078 27.6162 22.2498 27.4773 22.1467 27.3741ZM10.1257 20.4491C10.1259 19.5949 10.3793 18.76 10.854 18.0498C11.3287 17.3397 12.0033 16.7863 12.7925 16.4596C13.5818 16.1328 14.4501 16.0474 15.2879 16.2142C16.1256 16.381 16.8951 16.7924 17.499 17.3964C18.1029 18.0005 18.5142 18.7701 18.6807 19.6079C18.8473 20.4456 18.7617 21.314 18.4348 22.1031C18.1079 22.8923 17.5543 23.5667 16.8441 24.0413C16.1338 24.5158 15.2988 24.7691 14.4447 24.7691C13.2993 24.768 12.2013 24.3125 11.3915 23.5026C10.5817 22.6926 10.1265 21.5944 10.1257 20.4491Z" fill="#86868B"/>
</g>
<defs>
<clipPath id="clip0_2_279">
<rect width="15" height="88" fill="white" transform="translate(8.21875)"/>
</clipPath>
</defs>
</svg>
